<svg width="48" height="48" viewBox="0 0 48 48" fill="none" xmlns="http://www.w3.org/2000/svg">
<path d="M25.7988 23.9928L39.306 10.4724C39.5443 10.2329 39.678 9.90877 39.6777 9.57094C39.6775 9.23311 39.5434 8.90914 39.3048 8.66999C38.8272 8.19479 37.986 8.19239 37.5036 8.67239L24 22.1928L10.4916 8.66879C10.0116 8.19479 9.17039 8.19719 8.69279 8.67119C8.57424 8.78926 8.4804 8.92976 8.41674 9.08449C8.35307 9.23922 8.32086 9.40508 8.32199 9.57239C8.32199 9.91319 8.45399 10.2324 8.69279 10.4688L22.2 23.9916L8.69399 37.5156C8.45565 37.7554 8.32218 38.08 8.32285 38.4181C8.32353 38.7563 8.4583 39.0803 8.69759 39.3192C8.92919 39.5484 9.25679 39.6804 9.59519 39.6804H9.60239C9.94199 39.6792 10.2696 39.546 10.4964 39.3144L24 25.794L37.5084 39.318C37.7472 39.5556 38.0664 39.6876 38.4048 39.6876C38.572 39.6877 38.7377 39.6549 38.8922 39.591C39.0468 39.5271 39.1872 39.4333 39.3054 39.315C39.4237 39.1968 39.5175 39.0564 39.5814 38.9018C39.6453 38.7473 39.6781 38.5816 39.678 38.4144C39.678 38.0748 39.546 37.7544 39.306 37.518L25.7988 23.9928Z" fill="#053365"/>
</svg>
