<svg width="48" height="49" viewBox="0 0 48 49" fill="none" xmlns="http://www.w3.org/2000/svg">
<path d="M15.6 4.6001H32.4C38.8 4.6001 44 9.8001 44 16.2001V33.0001C44 36.0766 42.7779 39.0271 40.6024 41.2025C38.427 43.378 35.4765 44.6001 32.4 44.6001H15.6C9.2 44.6001 4 39.4001 4 33.0001V16.2001C4 13.1236 5.22214 10.1731 7.39756 7.99766C9.57298 5.82224 12.5235 4.6001 15.6 4.6001ZM15.2 8.6001C13.2904 8.6001 11.4591 9.35867 10.1088 10.7089C8.75857 12.0592 8 13.8905 8 15.8001V33.4001C8 37.3801 11.22 40.6001 15.2 40.6001H32.8C34.7096 40.6001 36.5409 39.8415 37.8912 38.4913C39.2414 37.141 40 35.3097 40 33.4001V15.8001C40 11.8201 36.78 8.6001 32.8 8.6001H15.2ZM34.5 11.6001C35.163 11.6001 35.7989 11.8635 36.2678 12.3323C36.7366 12.8012 37 13.4371 37 14.1001C37 14.7631 36.7366 15.399 36.2678 15.8679C35.7989 16.3367 35.163 16.6001 34.5 16.6001C33.837 16.6001 33.2011 16.3367 32.7322 15.8679C32.2634 15.399 32 14.7631 32 14.1001C32 13.4371 32.2634 12.8012 32.7322 12.3323C33.2011 11.8635 33.837 11.6001 34.5 11.6001ZM24 14.6001C26.6522 14.6001 29.1957 15.6537 31.0711 17.529C32.9464 19.4044 34 21.9479 34 24.6001C34 27.2523 32.9464 29.7958 31.0711 31.6712C29.1957 33.5465 26.6522 34.6001 24 34.6001C21.3478 34.6001 18.8043 33.5465 16.9289 31.6712C15.0536 29.7958 14 27.2523 14 24.6001C14 21.9479 15.0536 19.4044 16.9289 17.529C18.8043 15.6537 21.3478 14.6001 24 14.6001ZM24 18.6001C22.4087 18.6001 20.8826 19.2322 19.7574 20.3575C18.6321 21.4827 18 23.0088 18 24.6001C18 26.1914 18.6321 27.7175 19.7574 28.8427C20.8826 29.968 22.4087 30.6001 24 30.6001C25.5913 30.6001 27.1174 29.968 28.2426 28.8427C29.3679 27.7175 30 26.1914 30 24.6001C30 23.0088 29.3679 21.4827 28.2426 20.3575C27.1174 19.2322 25.5913 18.6001 24 18.6001Z" fill="#323232"/>
</svg>
