<svg width="48" height="49" viewBox="0 0 48 49" fill="none" xmlns="http://www.w3.org/2000/svg">
<path d="M33.2 12.2401C31.8332 10.6792 31.0798 8.6749 31.08 6.6001H24.9V31.4001C24.8533 32.7425 24.287 34.0142 23.3206 34.9471C22.3542 35.8799 21.0632 36.4009 19.72 36.4001C16.88 36.4001 14.52 34.0801 14.52 31.2001C14.52 27.7601 17.84 25.1801 21.26 26.2401V19.9201C14.36 19.0001 8.32001 24.3601 8.32001 31.2001C8.32001 37.8601 13.84 42.6001 19.7 42.6001C25.98 42.6001 31.08 37.5001 31.08 31.2001V18.6201C33.586 20.4198 36.5947 21.3854 39.68 21.3801V15.2001C39.68 15.2001 35.92 15.3801 33.2 12.2401Z" fill="#323232"/>
</svg>
