<svg width="60" height="61" viewBox="0 0 60 61" fill="none" xmlns="http://www.w3.org/2000/svg">
<path d="M25 38.1001L37.975 30.6001L25 23.1001V38.1001ZM53.9 18.5251C54.225 19.7001 54.45 21.2751 54.6 23.2751C54.775 25.2751 54.85 27.0001 54.85 28.5001L55 30.6001C55 36.0751 54.6 40.1001 53.9 42.6751C53.275 44.9251 51.825 46.3751 49.575 47.0001C48.4 47.3251 46.25 47.5501 42.95 47.7001C39.7 47.8751 36.725 47.9501 33.975 47.9501L30 48.1001C19.525 48.1001 13 47.7001 10.425 47.0001C8.175 46.3751 6.725 44.9251 6.1 42.6751C5.775 41.5001 5.55 39.9251 5.4 37.9251C5.225 35.9251 5.15 34.2001 5.15 32.7001L5 30.6001C5 25.1251 5.4 21.1001 6.1 18.5251C6.725 16.2751 8.175 14.8251 10.425 14.2001C11.6 13.8751 13.75 13.6501 17.05 13.5001C20.3 13.3251 23.275 13.2501 26.025 13.2501L30 13.1001C40.475 13.1001 47 13.5001 49.575 14.2001C51.825 14.8251 53.275 16.2751 53.9 18.5251Z" fill="#323232"/>
</svg>
