<svg width="43" height="36" viewBox="0 0 43 36" fill="none" xmlns="http://www.w3.org/2000/svg">
<g clip-path="url(#clip0_31_197)">
<path fill-rule="evenodd" clip-rule="evenodd" d="M31.4554 3.15625C30.417 7.52192 30.082 9.57043 29.3116 12.7271C28.5412 15.8167 27.9382 18.6376 26.9333 19.9809C25.9284 21.3242 24.555 21.6936 23.5166 21.7607C23.0141 21.8615 22.6792 21.8615 21.6407 21.8615C20.6023 21.8615 20.2004 21.8615 19.7649 21.7607C18.827 21.66 17.4536 21.3242 16.3482 19.9809C15.3098 18.604 14.7403 15.7831 13.9699 12.7271C13.1994 9.57043 12.764 7.52192 11.826 3.15625C11.826 3.15625 10.8881 3.15625 10.3857 3.257C9.78271 3.257 9.34725 3.257 8.84479 3.35774C8.84479 3.35774 9.44774 12.4249 9.68222 16.1861C9.9502 20.216 10.4527 26.9324 10.8881 32.0704C10.8881 32.0704 11.7256 32.2383 13.0989 32.2383C14.4723 32.4062 15.1423 32.507 15.1423 32.507C15.7452 30.2906 16.5157 27.1339 17.2861 25.757C17.956 24.6488 18.9945 24.548 19.5974 24.4809C20.5353 24.3801 21.3058 24.313 21.6407 24.313C21.9757 24.313 22.7461 24.313 23.6841 24.4809C24.287 24.5816 25.2919 24.6488 25.9954 25.757C26.8328 27.1339 27.5363 30.1898 28.1392 32.507C28.1392 32.507 28.7422 32.507 30.1825 32.4062C31.5559 32.3055 32.3934 32.2383 32.3934 32.2383C32.8288 27.1003 33.3313 20.3503 33.5993 16.354C33.8672 12.5257 34.4367 3.52565 34.4367 3.52565C33.9342 3.42491 33.4988 3.42491 32.8958 3.35774C32.4938 3.15625 31.4554 3.15625 31.4554 3.15625Z" fill="black"/>
<path fill-rule="evenodd" clip-rule="evenodd" d="M40.4329 18.5373C40.0979 23.2388 39.6624 26.1269 39.16 28.1754C38.6575 29.9552 38.0546 31.1642 37.1166 32.0037C35.5758 33.4478 33.4654 33.7836 32.2595 33.9851C29.6133 34.4216 25.0911 34.5896 21.6074 34.5896C18.1237 34.5896 13.6016 34.4216 10.9553 33.9851C9.7494 33.8172 7.63908 33.4813 6.0982 32.0037C5.16028 31.1642 4.55733 29.9552 4.05487 28.1754C3.45192 26.1269 3.08345 23.306 2.74848 18.5373C2.581 15.7164 2.581 11.0149 2.91597 8.52985C3.35143 4.8694 5.12678 2.98881 8.87847 2.28358C10.4863 1.94776 12.8981 1.6791 15.109 1.61194C16.9178 1.54478 19.8991 1.44403 21.5069 1.44403C23.1148 1.44403 26.096 1.54478 27.9049 1.61194C30.1157 1.71269 32.494 1.94776 34.3029 2.28358C38.0546 2.95522 39.8299 4.83582 40.2654 8.52985C40.4999 11.1157 40.6003 15.7164 40.4329 18.5373ZM42.4762 8.6306C41.8732 2.72015 38.1216 1.44403 34.8053 0.873134C33.097 0.604478 30.2162 0.369403 28.2399 0.268657C26.5985 0.100746 22.6793 0 21.5069 0C20.301 0 16.3819 0.100746 14.774 0.16791C12.8981 0.268657 9.91689 0.503731 8.20853 0.839552C4.8923 1.44403 1.14061 2.6194 0.537664 8.59702C0.370178 10.209 0.370178 12.3582 0.370178 14.5746C0.47067 18.3358 0.705151 20.8881 0.872637 22.6007C0.973128 23.8097 1.47559 27.4701 2.07854 29.25C2.91597 31.8022 3.6864 32.5746 4.55733 33.347C6.1652 34.7239 8.91197 35.1269 9.51492 35.3284C12.5967 35.9328 18.7267 36 21.4399 36C24.1532 36 30.3167 35.8993 33.3649 35.3284C33.9679 35.2276 36.6142 34.8246 38.3225 33.347C39.2605 32.5746 39.9304 31.8022 40.8013 29.25C41.4043 27.3694 41.9067 23.7761 42.0072 22.6007C42.1747 20.8209 42.5097 18.3358 42.5097 14.5746C42.6437 12.291 42.6437 10.2425 42.4762 8.6306Z" fill="black"/>
</g>
<defs>
<clipPath id="clip0_31_197">
<rect width="42.24" height="36" fill="white" transform="translate(0.380005)"/>
</clipPath>
</defs>
</svg>
